<svg width="177" height="64" viewBox="0 0 177 64" fill="none" xmlns="http://www.w3.org/2000/svg"><path fill-rule="evenodd" clip-rule="evenodd" d="M106.5 8h6v23.867l.001.133-.001.133V46h-6v-2.51a13.94 13.94 0 0 1-8 2.51c-7.732 0-14-6.268-14-14s6.268-14 14-14c2.975 0 5.732.927 8 2.509zm-8 32a8 8 0 1 0 0-16 8 8 0 0 0 0 16m50-32h6v12.51a13.94 13.94 0 0 1 8-2.51c7.733 0 14.001 6.268 14.001 14s-6.268 14-14.001 14-14-6.268-14-14zm14 32a8 8 0 1 0 0-16 8 8 0 0 0 0 16m-40-22h-6v14a14 14 0 0 0 4.101 9.9 14 14 0 0 0 15.257 3.034A14 14 0 0 0 144.501 32h-.001V18h-6v14a8 8 0 0 1-16 0z" fill="#000"/><path fill-rule="evenodd" clip-rule="evenodd" d="M32.5 64c17.673 0 32-14.327 32-32 0-11.844-6.435-22.186-16-27.719V48h-8v-2.14a15.9 15.9 0 0 1-8 2.14c-8.837 0-16-7.164-16-16s7.163-16 16-16c2.914 0 5.647.779 8 2.14V1.008A32 32 0 0 0 32.5 0C14.827 0 .5 14.327.5 32s14.327 32 32 32" fill="#000"/></svg>